<svg width="20" height="20" viewBox="0 0 20 20" fill="none" xmlns="http://www.w3.org/2000/svg">
<path d="M15.368 7.68617e-05H4.6094C3.9997 -0.000476234 3.39593 0.119788 2.83297 0.353921C2.27001 0.588055 1.75902 0.931418 1.32952 1.36417C0.901692 1.79555 0.563868 2.30765 0.335685 2.87074C0.107501 3.43382 -0.00648874 4.03664 0.000339157 4.64416V15.3559C-0.0070598 15.9635 0.106669 16.5665 0.334884 17.1297C0.563099 17.6928 0.901227 18.2049 1.32952 18.6359C1.7589 19.0685 2.26972 19.4118 2.8325 19.646C3.39527 19.8801 3.99885 20.0004 4.60838 20H9.49333V12.8554H7.62673C7.51118 12.8546 7.40056 12.8085 7.31867 12.727C7.23677 12.6455 7.19014 12.5351 7.18879 12.4195V10.1262C7.18866 10.0673 7.2002 10.0089 7.22275 9.95443C7.2453 9.89998 7.27842 9.85054 7.32019 9.80896C7.36195 9.76738 7.41155 9.73449 7.4661 9.71218C7.52065 9.68988 7.57908 9.67861 7.63801 9.67901H9.49333V7.44312C9.4413 6.91469 9.5058 6.38128 9.6823 5.88049C9.85879 5.37969 10.143 4.92371 10.5148 4.54467C10.887 4.16392 11.3378 3.86894 11.8357 3.68029C12.3337 3.49163 12.8667 3.41386 13.3978 3.45237H15.2993C15.3574 3.45277 15.415 3.46468 15.4685 3.48741C15.5221 3.51014 15.5706 3.54324 15.6113 3.5848C15.652 3.62637 15.6841 3.67558 15.7057 3.7296C15.7273 3.78361 15.738 3.84137 15.7372 3.89955V5.838C15.7372 5.89537 15.7259 5.95217 15.7038 6.00513C15.6818 6.0581 15.6495 6.10617 15.6087 6.1466C15.568 6.18702 15.5197 6.21899 15.4666 6.24066C15.4135 6.26233 15.3566 6.27328 15.2993 6.27287H14.1475C12.8799 6.27287 12.6378 6.86979 12.6378 7.74056V9.66773H15.4029C15.4652 9.66742 15.5269 9.68038 15.5838 9.70576C15.6407 9.73114 15.6916 9.76836 15.733 9.81493C15.7745 9.86151 15.8055 9.91638 15.8241 9.97588C15.8427 10.0354 15.8484 10.0982 15.8408 10.16L15.5639 12.4544C15.5526 12.5623 15.5015 12.662 15.4205 12.7342C15.3394 12.8063 15.2344 12.8455 15.1259 12.8441H12.6491V19.9887H15.3916C16.0011 19.9891 16.6047 19.8688 17.1674 19.6347C17.7302 19.4005 18.241 19.0573 18.6704 18.6246C19.0984 18.1931 19.4363 17.6808 19.6645 17.1176C19.8926 16.5543 20.0066 15.9513 19.9996 15.3436V4.64416C20.0076 4.03453 19.8934 3.42947 19.6637 2.86471C19.434 2.29995 19.0935 1.78694 18.6622 1.35597C18.2303 0.922973 17.7167 0.58013 17.1512 0.347363C16.5857 0.114596 15.9795 -0.00345247 15.368 7.68617e-05Z" fill="#6670FF"/>
</svg>
