<svg width="24" height="24" viewBox="0 0 24 24" fill="none" xmlns="http://www.w3.org/2000/svg">
<path d="M13.1218 2.3466C10.5 2.5 3.5 2.5 3 2.5C2.79092 2.43594 2.62177 2.59929 2.62177 2.88436L2.5 13C2.5 13.2851 2.66915 13.5829 2.87823 13.6502C3.33398 13.7968 11 13.5 13.1218 13.3812C13.3309 13.4484 13.5 13.2851 13.5 13V3.00001C13.5 2.71174 13.3309 2.41387 13.1218 2.3466Z" fill="#0B67B2"/>
<path d="M14 3C14 2.70522 13.7091 2.56956 13.5 2.5C13.3782 2.37745 13.0235 2.50662 13 2.5L9.37431 5.68314V2C8.4581 2.15567 7.5419 2.36765 6.62569 2.52332V5.64339L3.05717 2.57963C2.83164 2.53326 2.72788 2.57618 2.5 2.5C2.29092 2.43376 2 2.70522 2 3V3.48385L5.00705 6.06404H2V9.93928H5.14565L2.5 12V12.5697C2.5 12.8645 2.66915 13.1725 2.87823 13.2421C2.94871 13.2653 3.01919 13.2851 3.08731 13.305L6.62334 10.4758V14C7.53955 13.8443 8.45576 13.6323 9.37197 13.4767V10.4328L12.3254 13.1888C12.5908 13.2385 12.8563 13.3047 13.1218 13.3941C13.3309 13.4637 13.5 13.2948 13.5 13V12.3906L10.899 9.94259H13.9977V6.06735H11.0376L13.9977 3.52691C14 3.2785 14 3.24179 14 3Z" fill="#FF473E"/>
<path d="M11.7001 10.2216L14 12.1832V12.9534L10.798 10.2216H9.5928L13.4526 13.5162C13.0626 13.401 12.6703 13.3286 12.2803 13.2858L9.58575 10.9885V13.4109C9.44479 13.4339 9.30384 13.4569 9.16288 13.4833V9.63247H14V10.2249H11.7001V10.2216ZM6.41425 14C6.55521 13.977 6.69616 13.9539 6.83712 13.9276V9.62918H2V10.2216H4.34691L2 12.2227V12.9929L5.24902 10.2216H6.41425V10.2545L2.5 13.5C2.53289 13.523 2.56813 13.5428 2.60337 13.556C2.78896 13.6152 2.97455 13.6679 3.16014 13.7106L6.41425 11.028V14ZM2 5.77839V6.37082H6.83712V2.52002C6.69616 2.54635 6.55521 2.56939 6.41425 2.59243V5.0938L3.61394 2.70433C3.20987 2.65496 2.80579 2.57268 2.40172 2.44103L6.31323 5.77839H5.10807L2 3.12562V3.89578L4.2083 5.77839H2ZM9.58575 2C9.44479 2.02304 9.30384 2.04608 9.16288 2.07241V6.37082H14V5.77839H11.8387L14 3.93527V3.16511L10.9366 5.77839H9.7314L13.1903 2.63823C13.1339 2.57241 13.0705 2.52304 13 2.5C12.8614 2.45392 12.7251 2.41772 12.5865 2.38151L9.58575 5.13001V2Z" fill="#E8E8E8"/>
<path d="M20.125 10H11.875C10.6324 10 10 11.3432 10 13V16H22V13C22 11.3432 21.3676 10 20.125 10Z" fill="#1B75BB"/>
<path d="M10 19C10 20.6568 10.6324 22 11.875 22H20.125C21.3676 22 22 20.6568 22 19V16H10V19Z" fill="#F9CB38"/>
<path d="M4 16.5C4 17.904 4 18.607 4.337 19.111C4.48296 19.3295 4.67053 19.517 4.889 19.663C5.393 20 6.096 20 7.5 20M20 7.5C20 6.096 20 5.393 19.663 4.889C19.517 4.67053 19.3295 4.48296 19.111 4.337C18.607 4 17.904 4 16.5 4M10 16C10 13.172 10 11.757 10.879 10.879C11.757 10 13.172 10 16 10C18.828 10 20.243 10 21.121 10.879C22 11.757 22 13.172 22 16C22 18.828 22 20.243 21.121 21.121C20.243 22 18.828 22 16 22C13.172 22 11.757 22 10.879 21.121C10 20.243 10 18.828 10 16Z" stroke="#43484F" stroke-width="1.5" stroke-linecap="round" stroke-linejoin="round"/>
<path d="M14 10V8C14 5.172 14 3.757 13.121 2.879C12.243 2 10.828 2 8 2C5.172 2 3.757 2 2.879 2.879C2 3.757 2 5.172 2 8C2 10.828 2 12.243 2.879 13.121C3.757 14 5.172 14 8 14H10" stroke="#43484F" stroke-width="1.5" stroke-linecap="round" stroke-linejoin="round"/>
</svg>
