<svg width="24" height="24" viewBox="0 0 24 24" fill="none" xmlns="http://www.w3.org/2000/svg">
<path d="M12.125 2H3.875C2.63244 2 2 3.34318 2 5V8H14V5C14 3.34318 13.3676 2 12.125 2Z" fill="#1B75BB"/>
<path d="M2 11C2 12.6568 2.63244 14 3.875 14H12.125C13.3676 14 14 12.6568 14 11V8H2V11Z" fill="#F9CB38"/>
<path d="M21.1218 10.3466C18.5 10.5 11.5 10.5 11 10.5C10.7909 10.4359 10.6218 10.5993 10.6218 10.8844L10.5 21C10.5 21.2851 10.6691 21.5829 10.8782 21.6502C11.334 21.7968 19 21.5 21.1218 21.3812C21.3309 21.4484 21.5 21.2851 21.5 21V11C21.5 10.7117 21.3309 10.4139 21.1218 10.3466Z" fill="#0B67B2"/>
<path d="M22 11C22 10.7052 21.7091 10.5696 21.5 10.5C21.3782 10.3774 21.0235 10.5066 21 10.5L17.3743 13.6831V10C16.4581 10.1557 15.5419 10.3677 14.6257 10.5233V13.6434L11.0572 10.5796C10.8316 10.5333 10.7279 10.5762 10.5 10.5C10.2909 10.4338 10 10.7052 10 11V11.4839L13.007 14.064H10V17.9393H13.1457L10.5 20V20.5697C10.5 20.8645 10.6691 21.1725 10.8782 21.2421C10.9487 21.2653 11.0192 21.2851 11.0873 21.305L14.6233 18.4758V22C15.5395 21.8443 16.4558 21.6323 17.372 21.4767V18.4328L20.3254 21.1888C20.5908 21.2385 20.8563 21.3047 21.1218 21.3941C21.3309 21.4637 21.5 21.2948 21.5 21V20.3906L18.899 17.9426H21.9977V14.0673H19.0376L21.9977 11.5269C22 11.2785 22 11.2418 22 11Z" fill="#FF473E"/>
<path d="M19.7001 18.2216L22 20.1832V20.9534L18.798 18.2216H17.5928L21.4526 21.5162C21.0626 21.401 20.6703 21.3286 20.2803 21.2858L17.5857 18.9885V21.4109C17.4448 21.4339 17.3038 21.4569 17.1629 21.4833V17.6325H22V18.2249H19.7001V18.2216ZM14.4143 22C14.5552 21.977 14.6962 21.9539 14.8371 21.9276V17.6292H10V18.2216H12.3469L10 20.2227V20.9929L13.249 18.2216H14.4143V18.2545L10.5 21.5C10.5329 21.523 10.5681 21.5428 10.6034 21.556C10.789 21.6152 10.9745 21.6679 11.1601 21.7106L14.4143 19.028V22ZM10 13.7784V14.3708H14.8371V10.52C14.6962 10.5464 14.5552 10.5694 14.4143 10.5924V13.0938L11.6139 10.7043C11.2099 10.655 10.8058 10.5727 10.4017 10.441L14.3132 13.7784H13.1081L10 11.1256V11.8958L12.2083 13.7784H10ZM17.5857 10C17.4448 10.023 17.3038 10.0461 17.1629 10.0724V14.3708H22V13.7784H19.8387L22 11.9353V11.1651L18.9366 13.7784H17.7314L21.1903 10.6382C21.1339 10.5724 21.0705 10.523 21 10.5C20.8614 10.4539 20.7251 10.4177 20.5865 10.3815L17.5857 13.13V10Z" fill="#E8E8E8"/>
<path d="M4 16.5C4 17.904 4 18.607 4.337 19.111C4.48296 19.3295 4.67053 19.517 4.889 19.663C5.393 20 6.096 20 7.5 20M20 7.5C20 6.096 20 5.393 19.663 4.889C19.517 4.67053 19.3295 4.48296 19.111 4.337C18.607 4 17.904 4 16.5 4M10 16C10 13.172 10 11.757 10.879 10.879C11.757 10 13.172 10 16 10C18.828 10 20.243 10 21.121 10.879C22 11.757 22 13.172 22 16C22 18.828 22 20.243 21.121 21.121C20.243 22 18.828 22 16 22C13.172 22 11.757 22 10.879 21.121C10 20.243 10 18.828 10 16Z" stroke="#43484F" stroke-width="1.5" stroke-linecap="round" stroke-linejoin="round"/>
<path d="M14 10V8C14 5.172 14 3.757 13.121 2.879C12.243 2 10.828 2 8 2C5.172 2 3.757 2 2.879 2.879C2 3.757 2 5.172 2 8C2 10.828 2 12.243 2.879 13.121C3.757 14 5.172 14 8 14H10" stroke="#43484F" stroke-width="1.5" stroke-linecap="round" stroke-linejoin="round"/>
</svg>
