<svg width="20" height="20" viewBox="0 0 20 20" fill="none" xmlns="http://www.w3.org/2000/svg">
<path d="M15.439 0H4.56103C3.35137 0 2.19125 0.480535 1.33589 1.33589C0.480535 2.19125 0 3.35137 0 4.56103V15.439C0 16.6486 0.480535 17.8087 1.33589 18.6641C2.19125 19.5195 3.35137 20 4.56103 20H15.439C16.6486 20 17.8087 19.5195 18.6641 18.6641C19.5195 17.8087 20 16.6486 20 15.439V4.56103C20 3.35137 19.5195 2.19125 18.6641 1.33589C17.8087 0.480535 16.6486 0 15.439 0ZM6.76205 16.1456C6.76527 16.2015 6.75704 16.2574 6.73786 16.3099C6.71869 16.3624 6.68898 16.4105 6.65056 16.4511C6.61214 16.4917 6.56582 16.5241 6.51444 16.5462C6.46306 16.5682 6.40771 16.5796 6.3518 16.5795H4.52615C4.41606 16.5768 4.31141 16.531 4.2347 16.452C4.15798 16.373 4.11533 16.2671 4.1159 16.1569V8.5641C4.11439 8.50929 4.12389 8.45472 4.14383 8.40364C4.16377 8.35255 4.19375 8.30599 4.232 8.26669C4.27024 8.22739 4.31598 8.19616 4.36651 8.17484C4.41703 8.15352 4.47132 8.14254 4.52615 8.14256H6.3518C6.40663 8.14254 6.46092 8.15352 6.51144 8.17484C6.56197 8.19616 6.60771 8.22739 6.64595 8.26669C6.6842 8.30599 6.71418 8.35255 6.73412 8.40364C6.75406 8.45472 6.76356 8.50929 6.76205 8.5641V16.1456ZM5.40513 6.54564C5.20747 6.54416 5.01204 6.50376 4.83 6.42675C4.64796 6.34974 4.48286 6.23763 4.34415 6.09682C4.20543 5.95601 4.09581 5.78926 4.02154 5.60608C3.94726 5.4229 3.9098 5.22689 3.91128 5.02923C3.91276 4.83157 3.95316 4.63615 4.03017 4.4541C4.10718 4.27206 4.21929 4.10697 4.3601 3.96825C4.50091 3.82953 4.66767 3.71991 4.85085 3.64564C5.03402 3.57137 5.23004 3.5339 5.42769 3.53538C5.82002 3.54814 6.19182 3.71372 6.46378 3.99678C6.73573 4.27984 6.8863 4.65797 6.88336 5.05049C6.88042 5.44301 6.72419 5.81884 6.44802 6.09779C6.17185 6.37674 5.7976 6.53672 5.40513 6.54359M16.4995 16.1333C16.499 16.237 16.4583 16.3364 16.386 16.4106C16.3137 16.4848 16.2154 16.5281 16.1118 16.5313H14.1846C14.0809 16.5281 13.9824 16.4847 13.9101 16.4102C13.8377 16.3358 13.7971 16.2361 13.7969 16.1323V12.6205C13.7969 12.0964 13.9569 10.3405 12.4062 10.3405C11.1969 10.3405 10.9579 11.5713 10.9118 12.119V16.2123C10.9118 16.3163 10.8714 16.4162 10.799 16.4909C10.7266 16.5656 10.628 16.6091 10.5241 16.6123H8.65436C8.54845 16.612 8.44697 16.5698 8.37218 16.4948C8.29739 16.4198 8.25538 16.3182 8.25538 16.2123V8.52718C8.25858 8.42324 8.30214 8.32463 8.37681 8.25226C8.45148 8.17989 8.5514 8.13944 8.65539 8.13949H10.5241C10.6281 8.13944 10.728 8.17989 10.8027 8.25226C10.8774 8.32463 10.9209 8.42324 10.9241 8.52718V9.18872C11.197 8.78936 11.5737 8.47207 12.0136 8.27108C12.4535 8.07009 12.94 7.99303 13.4205 8.04821C16.5333 8.04821 16.5221 10.9559 16.5221 12.6092L16.4995 16.1333Z" fill="#6670FF"/>
</svg>
